<svg xmlns="http://www.w3.org/2000/svg" version="1.1" xmlns:xlink="http://www.w3.org/1999/xlink" xmlns:svgjs="http://svgjs.com/svgjs" width="512" height="512" x="0" y="0" viewBox="0 0 512 511" style="enable-background:new 0 0 512 512" xml:space="preserve"><g><path xmlns="http://www.w3.org/2000/svg" d="m112.046875 100.078125c4.140625 0 7.5-3.355469 7.5-7.5 0-.285156.230469-.515625.515625-.515625h34.773438c6.667968 0 12.089843-5.425781 12.089843-12.09375v-34.769531c0-.289063.234375-.519531.519531-.519531h37.488282c.289062 0 .519531.230468.519531.519531v34.769531c0 6.667969 5.425781 12.09375 12.089844 12.09375h34.773437c.285156 0 .519532.230469.519532.515625v37.492187c0 .285157-.234376.515626-.519532.515626h-34.773437c-6.664063 0-12.089844 5.425781-12.089844 12.09375v34.769531c0 .285156-.230469.519531-.519531.519531h-13.265625c-4.144531 0-7.5 3.355469-7.5 7.5s3.355469 7.5 7.5 7.5h13.265625c8.558594 0 15.519531-6.960938 15.519531-15.519531v-31.863281h31.863281c8.554688 0 15.519532-6.960938 15.519532-15.515626v-37.492187c0-8.554687-6.960938-15.515625-15.519532-15.515625h-31.863281v-31.863281c0-8.558594-6.960937-15.519531-15.519531-15.519531h-37.488282c-8.558593 0-15.519531 6.960937-15.519531 15.519531v31.863281h-31.863281c-8.554688 0-15.515625 6.960938-15.515625 15.515625 0 4.144531 3.355469 7.5 7.5 7.5zm0 0" fill="#65C178" data-original="#000000"></path><path xmlns="http://www.w3.org/2000/svg" d="m89.382812 214.019531c4.414063 3.222657 10.171876 4.167969 15.402344 2.519531 14.75-4.648437 29.09375-4.648437 43.839844 0 1.699219.535157 3.449219.796876 5.195312.796876 3.628907 0 7.226563-1.136719 10.210938-3.3125 4.394531-3.203126 6.929688-8.144532 6.957031-13.554688 0-.503906-.003906-1.011719-.019531-1.519531-.699219-24.59375-20.683594-45.636719-43.640625-45.957031-11.050781-.140626-21.777344 4.347656-30.222656 12.675781-9.332031 9.203125-14.683594 21.804687-14.683594 34.570312v.164063c.019531 5.4375 2.558594 10.398437 6.960937 13.617187zm8.039063-13.78125c0-8.648437 3.820313-17.582031 10.21875-23.890625 5.5625-5.484375 12.464844-8.449218 19.480469-8.355468 14.902344.207031 28.382812 14.871093 28.855468 31.386718.007813.339844.011719.675782.011719 1.007813v.007812c-.003906.621094-.269531 1.128907-.792969 1.511719-.28125.203125-1.046874.648438-2.058593.328125-8.769531-2.761719-17.601563-4.144531-26.429688-4.144531s-17.660156 1.382812-26.429687 4.144531c-1.007813.316406-1.765625-.121094-2.046875-.328125-.367188-.265625-.804688-.753906-.808594-1.527344zm0 0" fill="#65C178" data-original="#000000"></path><path xmlns="http://www.w3.org/2000/svg" d="m146.515625 126.871094c0-12.3125-8.886719-22.332032-19.8125-22.332032-10.921875 0-19.808594 10.019532-19.808594 22.332032s8.886719 22.332031 19.808594 22.332031c10.925781 0 19.8125-10.015625 19.8125-22.332031zm-24.621094 0c0-4.320313 2.535157-7.332032 4.808594-7.332032 2.277344 0 4.8125 3.011719 4.8125 7.332032 0 4.320312-2.535156 7.332031-4.8125 7.332031-2.273437 0-4.808594-3.007813-4.808594-7.332031zm0 0" fill="#65C178" data-original="#000000"></path><path xmlns="http://www.w3.org/2000/svg" d="m87.890625 165.625c4.695313 0 9.132813-1.632812 12.496094-4.660156 4.070312-3.667969 6.269531-9.109375 6.039062-14.929688-.21875-5.382812-2.441406-10.683594-6.261719-14.925781-8.238281-9.148437-21.546874-10.644531-29.664062-3.335937-4.070312 3.664062-6.273438 9.105468-6.035156 14.925781.214844 5.382812 2.4375 10.683593 6.257812 14.921875 3.816406 4.242187 8.855469 7.007812 14.183594 7.785156 1.003906.148438 2 .21875 2.984375.21875zm-6.023437-18.039062c-1.460938-1.621094-2.339844-3.625-2.414063-5.488282-.03125-.792968.066406-2.257812 1.085937-3.179687.59375-.53125 1.457032-.8125 2.453126-.8125 1.847656 0 4.148437.960937 6.027343 3.042969 1.460938 1.625 2.34375 3.625 2.417969 5.492187.03125.792969-.066406 2.257813-1.085938 3.175781-1.023437.917969-2.492187.863282-3.273437.75-1.847656-.269531-3.746094-1.355468-5.210937-2.980468zm0 0" fill="#65C178" data-original="#000000"></path><path xmlns="http://www.w3.org/2000/svg" d="m182.6875 157.621094c3.820312-4.238282 6.042969-9.539063 6.257812-14.921875.234376-5.820313-1.964843-11.261719-6.035156-14.925781-4.070312-3.667969-9.714844-5.292969-15.476562-4.445313-5.332032.777344-10.371094 3.542969-14.191406 7.78125-3.816407 4.242187-6.039063 9.542969-6.257813 14.925781-.230469 5.820313 1.96875 11.261719 6.039063 14.929688 3.363281 3.027344 7.800781 4.660156 12.496093 4.660156.984375 0 1.980469-.070312 2.980469-.21875 5.332031-.777344 10.371094-3.542969 14.1875-7.785156zm-8.726562-15.523438c-.078126 1.863282-.957032 3.867188-2.421876 5.488282-1.460937 1.625-3.355468 2.710937-5.203124 2.980468-.785157.113282-2.253907.167969-3.277344-.75-1.019532-.917968-1.117188-2.382812-1.085938-3.175781.078125-1.867187.957032-3.867187 2.417969-5.492187 1.460937-1.621094 3.359375-2.707032 5.207031-2.976563.230469-.035156.523438-.0625.84375-.0625.769532 0 1.710938.160156 2.429688.808594v.003906c1.023437.917969 1.121094 2.382813 1.089844 3.175781zm0 0" fill="#65C178" data-original="#000000"></path><path xmlns="http://www.w3.org/2000/svg" d="m510.792969 196.09375-29.707031-45.859375c-2.253907-3.476563-6.898438-4.464844-10.375-2.21875-3.476563 2.253906-4.46875 6.894531-2.214844 10.375l14.214844 21.941406h-95.898438c-4.136719 0-7.5-3.363281-7.5-7.5v-41.023437c0-4.136719 3.363281-7.5 7.5-7.5h59.597656l5.625 8.679687c2.253906 3.480469 6.898438 4.46875 10.375 2.214844 3.476563-2.25 4.46875-6.894531 2.214844-10.371094l-7.777344-12c-.046875-.074219-.09375-.144531-.140625-.21875l-21.4375-33.085937c-4.160156-6.429688-11.21875-10.265625-18.890625-10.265625h-11.878906v-15.773438c0-14.429687-11.738281-26.167969-26.167969-26.167969-14.429687 0-26.167969 11.738282-26.167969 26.167969v15.773438h-13.882812v-46.261719c0-12.40625-10.09375-22.5-22.5-22.5h-186.382812c-4.140626 0-7.5 3.355469-7.5 7.5s3.359374 7.5 7.5 7.5h186.382812c4.132812 0 7.5 3.363281 7.5 7.5v207.929688h-308.28125v-207.929688c0-4.136719 3.363281-7.5 7.5-7.5h76.890625c4.140625 0 7.5-3.355469 7.5-7.5s-3.359375-7.5-7.5-7.5h-76.890625c-12.40625 0-22.5 10.09375-22.5 22.5v260.910156c0 12.40625 10.09375 22.5 22.5 22.5h72.753906c3.578125 21.226563 22.089844 37.445313 44.316406 37.445313 22.230469 0 40.742188-16.21875 44.324219-37.445313h180.699219c3.578125 21.226563 22.089844 37.445313 44.320312 37.445313 22.226563 0 40.738282-16.21875 44.320313-37.445313h36.265625c12.40625 0 22.5-10.09375 22.5-22.5v-83.738281c0-1.449219-.417969-2.863281-1.207031-4.078125zm-143.628907-142.605469c0-6.160156 5.011719-11.167969 11.167969-11.167969 6.160157 0 11.167969 5.007813 11.167969 11.167969v15.769531h-22.335938zm-352.164062 230.421875v-37.980468h308.28125v45.480468h-139.386719c-3.582031-21.226562-22.09375-37.449218-44.324219-37.449218-22.226562 0-40.738281 16.222656-44.320312 37.449218h-72.75c-4.136719 0-7.5-3.363281-7.5-7.5zm124.570312 44.945313c-16.511718 0-29.945312-13.433594-29.945312-29.945313 0-16.511718 13.433594-29.945312 29.945312-29.945312 16.515626 0 29.949219 13.433594 29.949219 29.945312 0 16.511719-13.433593 29.945313-29.949219 29.945313zm269.339844 0c-16.511718 0-29.945312-13.433594-29.945312-29.945313 0-16.511718 13.433594-29.945312 29.945312-29.945312 16.515625 0 29.949219 13.433594 29.949219 29.945312 0 16.511719-13.433594 29.945313-29.949219 29.945313zm80.589844-37.445313h-36.265625c-3.582031-21.226562-22.09375-37.449218-44.324219-37.449218-22.226562 0-40.738281 16.222656-44.320312 37.449218h-26.308594v-207.148437h78.097656c2.558594 0 4.910156 1.273437 6.296875 3.417969l14.015625 21.628906h-49.878906c-12.40625 0-22.5 10.09375-22.5 22.5v41.023437c0 12.40625 10.09375 22.5 22.5 22.5h105.617188l4.570312 7.054688v9.292969h-4.332031c-12.40625 0-22.5 10.09375-22.5 22.5v19.488281c0 12.40625 10.09375 22.5 22.5 22.5h4.332031v7.742187c0 4.136719-3.363281 7.5-7.5 7.5zm7.5-30.242187h-4.332031c-4.136719 0-7.5-3.363281-7.5-7.5v-19.488281c0-4.136719 3.363281-7.5 7.5-7.5h4.332031zm0 0" fill="#65C178" data-original="#000000"></path><path xmlns="http://www.w3.org/2000/svg" d="m408.910156 274.320312c-13.554687 0-24.585937 11.03125-24.585937 24.589844s11.03125 24.585938 24.585937 24.585938c4.144532 0 7.5-3.355469 7.5-7.5 0-4.140625-3.355468-7.5-7.5-7.5-5.285156 0-9.585937-4.300782-9.585937-9.585938 0-5.289062 4.300781-9.589844 9.585937-9.589844 5.289063 0 9.589844 4.300782 9.589844 9.589844 0 4.140625 3.359375 7.5 7.5 7.5s7.5-3.359375 7.5-7.5c0-13.558594-11.03125-24.589844-24.589844-24.589844zm0 0" fill="#65C178" data-original="#000000"></path><path xmlns="http://www.w3.org/2000/svg" d="m139.570312 274.320312c-13.554687 0-24.585937 11.03125-24.585937 24.589844s11.03125 24.585938 24.585937 24.585938c4.144532 0 7.5-3.355469 7.5-7.5 0-4.140625-3.355468-7.5-7.5-7.5-5.285156 0-9.585937-4.300782-9.585937-9.585938 0-5.289062 4.300781-9.589844 9.585937-9.589844 5.289063 0 9.589844 4.300782 9.589844 9.589844 0 4.140625 3.359375 7.5 7.5 7.5s7.5-3.359375 7.5-7.5c0-13.558594-11.03125-24.589844-24.589844-24.589844zm0 0" fill="#65C178" data-original="#000000"></path></g></svg>