<svg xmlns="http://www.w3.org/2000/svg" version="1.1" xmlns:xlink="http://www.w3.org/1999/xlink" xmlns:svgjs="http://svgjs.com/svgjs" width="512" height="512" x="0" y="0" viewBox="0 0 510.002 510.002" style="enable-background:new 0 0 512 512" xml:space="preserve"><g><g xmlns="http://www.w3.org/2000/svg"><path d="m500.825 89.625c6.594-10.288 9.738-22.221 9.094-34.509-1.537-29.322-25.71-53.495-55.032-55.032-30.745-1.612-55.765 20.407-60.513 48.153h-278.746c-4.755-27.792-29.83-49.777-60.512-48.152-29.322 1.536-53.495 25.709-55.033 55.03-.645 12.287 2.499 24.22 9.093 34.51 6.66 10.392 6.66 23.304 0 33.697-6.593 10.288-9.737 22.22-9.093 34.507 1.563 29.825 26.814 55.115 58.198 55.115 28.955 0 52.706-21.115 57.347-48.236h278.746c4.728 27.63 29.668 49.769 60.513 48.153 29.322-1.537 53.495-25.71 55.032-55.032.645-12.288-2.5-24.221-9.093-34.507-6.66-10.393-6.66-23.305-.001-33.697zm-16.838 44.488c4.322 6.744 6.384 14.583 5.959 22.669-1.009 19.237-16.868 35.098-36.106 36.107-22.018 1.147-40.31-16.278-40.31-38.181 0-5.523-4.477-10-10-10h-297.058c-5.523 0-10 4.477-10 10 0 21.81-18.211 39.344-40.309 38.181-19.238-1.009-35.099-16.87-36.107-36.107-.424-8.086 1.637-15.925 5.959-22.67 10.926-17.049 10.926-38.231 0-55.279-4.323-6.746-6.383-14.585-5.959-22.67 1.009-19.239 16.869-35.099 36.107-36.107 22.074-1.165 40.309 16.343 40.309 38.181 0 5.522 4.477 10 10 10h297.058c5.523 0 10-4.477 10-10 0-21.758 18.15-39.339 40.31-38.181 19.238 1.008 35.098 16.868 36.106 36.107.425 8.086-1.637 15.925-5.96 22.67-10.924 17.048-10.924 38.23.001 55.28z" fill="#65C178" data-original="#000000"></path><path d="m255.001 190.002c-88.64 0-160 72.174-160 160 0 87.954 71.502 160 160 160 88.643 0 160-72.177 160-160 0-87.976-71.527-160-160-160zm-102.456 64.701c49.986 53.561 50.019 137.003 0 190.599-50.086-53.811-50.046-136.831 0-190.599zm14.616 204.226c56.782-61.178 57.388-156.024 0-217.853 51.255-41.414 124.342-41.481 175.681 0-56.782 61.176-57.389 156.023 0 217.853-51.256 41.414-124.343 41.481-175.681 0zm190.295-13.627c-49.985-53.561-50.018-137.004 0-190.599 50.087 53.81 50.048 136.831 0 190.599z" fill="#65C178" data-original="#000000"></path></g></g></svg>