<svg xmlns="http://www.w3.org/2000/svg" version="1.1" xmlns:xlink="http://www.w3.org/1999/xlink" xmlns:svgjs="http://svgjs.com/svgjs" width="512" height="512" x="0" y="0" viewBox="0 0 512.001 512.001" style="enable-background:new 0 0 512 512" xml:space="preserve" class=""><g>
<g xmlns="http://www.w3.org/2000/svg">
	<g>
		<path d="M114.313,398.586c-4.366-9.627-12.22-16.978-22.115-20.699c-20.43-7.682-43.293,2.69-50.975,23.116    c-7.68,20.427,2.69,43.294,23.116,50.975c4.533,1.704,9.246,2.554,13.947,2.553c5.563,0,11.111-1.188,16.328-3.554    c9.627-4.367,16.978-12.22,20.698-22.115C119.034,418.965,118.678,408.214,114.313,398.586z M101.245,423.571    c-2.307,6.137-6.867,11.01-12.838,13.717c-5.971,2.708-12.639,2.929-18.778,0.621c-12.67-4.763-19.101-18.947-14.338-31.617    c3.697-9.833,13.07-15.909,23.004-15.909c2.865,0,5.777,0.505,8.613,1.571c6.138,2.307,11.01,6.867,13.717,12.839    C103.333,410.764,103.554,417.433,101.245,423.571z" fill="#65C178" data-original="#000000" class=""></path>
	</g>
</g>
<g xmlns="http://www.w3.org/2000/svg">
	<g>
		<path d="M308.945,392.539c-12.346-32.838-49.112-49.507-81.946-37.161c-7.977,2.999-15.162,7.494-21.247,13.24l-11.879-31.594    c5.679-15.207,11.451-31.227,17.554-48.169c7.342-20.382,14.935-41.458,23.212-63.472c34.086-90.652,25.377-178.88,24.99-182.593    c-0.353-3.375-3.021-6.159-6.377-6.653c-3.461-0.509-6.899,1.514-8.132,4.788l-81.291,216.196L82.539,40.928    c-1.231-3.27-4.675-5.297-8.132-4.788c-3.357,0.495-6.025,3.278-6.377,6.653c-0.387,3.711-9.094,91.94,24.99,182.592    c8.279,22.018,15.873,43.098,23.216,63.484c6.097,16.925,11.895,33.018,17.547,48.166l-11.875,31.584    c-6.085-5.746-13.271-10.241-21.247-13.24c-15.906-5.981-33.192-5.41-48.669,1.609s-27.295,19.644-33.277,35.551    c-5.982,15.907-5.41,33.192,1.608,48.669c7.02,15.477,19.645,27.295,35.552,33.277c9.921,3.731,19.068,5.429,27.546,5.428    c37.503-0.005,61.746-33.267,80.39-70.933c16.148,32.554,33.318,55.359,55.101,65.42c8.048,3.717,16.412,5.575,25.22,5.575    c8.74,0,17.917-1.831,27.651-5.49C304.62,462.138,321.291,425.377,308.945,392.539z M172.392,277.058L245.68,82.144    c-0.697,33.8-5.539,85.903-25.11,137.951c-8.313,22.111-15.924,43.237-23.283,63.667c-3.951,10.968-7.763,21.551-11.497,31.765    l-14-37.236C172.021,277.905,172.228,277.496,172.392,277.058z M61.166,460.418c-12.15-4.569-21.794-13.595-27.155-25.417    c-5.362-11.822-5.797-25.023-1.228-37.173c9.429-25.081,37.509-37.813,62.588-28.383c9.346,3.515,17.271,9.717,22.917,17.935    c3.375,4.914,11.133,3.964,13.228-1.61l10.349-27.524c4.588,11.751,9.125,22.815,13.696,33.11    C126.032,455.439,99.465,474.815,61.166,460.418z M266.494,460.418c-15.586,5.859-29.087,5.969-41.279,0.338    c-37.29-17.224-62.685-87.723-94.838-176.981c-7.361-20.435-14.972-41.564-23.287-63.68    C87.551,168.135,82.704,116.018,81.997,82.19L196.145,385.77c2.097,5.572,9.852,6.523,13.228,1.61    c5.646-8.219,13.57-14.421,22.916-17.935c25.08-9.43,53.159,3.302,62.589,28.383C304.308,422.91,291.575,450.987,266.494,460.418z    " fill="#65C178" data-original="#000000" class=""></path>
	</g>
</g>
<g xmlns="http://www.w3.org/2000/svg">
	<g>
		<path d="M286.437,401.001c-3.721-9.893-11.073-17.748-20.699-22.114c-9.628-4.366-20.38-4.721-30.275-1.001    c-20.427,7.681-30.796,30.548-23.116,50.975c3.721,9.895,11.073,17.749,20.699,22.115c5.218,2.366,10.765,3.554,16.328,3.554    c4.701,0,9.414-0.85,13.947-2.554C283.748,444.296,294.117,421.429,286.437,401.001z M258.03,437.909    c-6.139,2.307-12.806,2.087-18.778-0.621c-5.972-2.708-10.532-7.58-12.838-13.717c-4.764-12.67,1.668-26.852,14.338-31.617    c2.813-1.057,5.734-1.584,8.651-1.584c3.449,0,6.891,0.737,10.127,2.204c5.972,2.708,10.532,7.58,12.838,13.717    C277.133,418.962,270.7,433.145,258.03,437.909z" fill="#65C178" data-original="#000000" class=""></path>
	</g>
</g>
<g xmlns="http://www.w3.org/2000/svg">
	<g>
		<circle cx="163.329" cy="332.55" r="7.515" fill="#65C178" data-original="#000000" class=""></circle>
	</g>
</g>
<g xmlns="http://www.w3.org/2000/svg">
	<g>
		<path d="M454.214,271.821c19.237-25.889,43.178-58.107,43.178-120.025c0-26.268-4.619-52.139-13.359-74.812    c-1.492-3.873-5.841-5.802-9.714-4.309c-3.873,1.493-5.802,5.842-4.309,9.714c8.081,20.967,12.353,44.968,12.353,69.407    c0,56.944-22.297,86.951-40.213,111.061c-12.092,16.274-22.536,30.328-24.268,48.54c-0.039,0.41-0.07,0.806-0.107,1.212h-48.171    c-0.037-0.407-0.068-0.804-0.107-1.212c-1.732-18.212-12.176-32.267-24.268-48.54c-17.916-24.11-40.213-54.117-40.213-111.061    c0-37.072,9.557-71.824,26.911-97.854c16.73-25.092,38.664-38.911,61.763-38.911c21.944,0,43.066,12.644,59.476,35.602    c2.381,3.332,7.152,4.124,10.484,1.743c3.331-2.381,4.124-7.152,1.743-10.483C446.083,14.877,420.618,0,393.688,0    c-28.286,0-54.662,16.197-74.268,45.606c-18.981,28.472-29.435,66.184-29.435,106.19c0,61.917,23.942,94.137,43.178,120.025    c11.194,15.064,20.035,26.963,21.371,41c0.443,4.653,1.048,9.427,1.048,14.105c0.766,14.434,0.466,27.736-0.902,40.491    c-0.005,0.045-0.003,0.091-0.007,0.136c-1.916,17.719-5.605,31.557-9.048,44.451c-3.881,14.533-7.546,28.26-7.546,44.388    c0,17.266,5.709,31.65,16.51,41.598c9.952,9.166,23.473,14.01,39.098,14.01c15.626,0,29.147-4.844,39.098-14.01    c10.8-9.947,16.51-24.332,16.51-41.598c0-16.128-3.665-29.854-7.546-44.388c-3.443-12.894-7.131-26.732-9.048-44.451    c-0.004-0.045-0.002-0.091-0.007-0.136c-1.368-12.755-1.667-26.058-0.902-40.491l-0.001-0.002c0.25-4.707,0.601-9.41,1.048-14.104    C434.178,298.784,443.02,286.885,454.214,271.821z M370.901,333.921c-0.073-2.094-0.132-4.188-0.233-6.281h46.041    c-0.101,2.094-0.166,4.19-0.233,6.285c-0.261,9.28-0.089,18.161,0.533,26.779h-46.64    C370.99,352.086,371.161,343.203,370.901,333.921z M434.267,456.391c0.001,25.41-15.17,40.579-40.578,40.579    s-40.579-15.17-40.579-40.579c0-14.155,3.261-26.368,7.037-40.51c3.054-11.438,6.465-24.234,8.637-40.147h49.81    c2.172,15.913,5.583,28.709,8.637,40.147C431.006,430.023,434.267,442.237,434.267,456.391z" fill="#65C178" data-original="#000000" class=""></path>
	</g>
</g>
<g xmlns="http://www.w3.org/2000/svg">
	<g>
		<path d="M445.557,68.717c-13.507-23.637-31.927-36.655-51.868-36.655S355.327,45.08,341.82,68.717    c-12.751,22.313-19.772,51.817-19.772,83.079c0,31.262,7.022,60.767,19.772,83.079c13.507,23.637,31.927,36.655,51.868,36.655    s38.361-13.017,51.868-36.655c12.751-22.313,19.772-51.817,19.772-83.079C465.328,120.534,458.307,91.03,445.557,68.717z     M393.688,256.501c-30.686,0-56.611-47.949-56.611-104.705c0-56.756,25.925-104.704,56.611-104.704s56.611,47.949,56.611,104.704    C450.299,208.552,424.374,256.501,393.688,256.501z" fill="#65C178" data-original="#000000" class=""></path>
	</g>
</g>
<g xmlns="http://www.w3.org/2000/svg">
	<g>
		<circle cx="377.658" cy="87.17" r="7.515" fill="#65C178" data-original="#000000" class=""></circle>
	</g>
</g>
<g xmlns="http://www.w3.org/2000/svg">
	<g>
		<circle cx="410.222" cy="87.17" r="7.515" fill="#65C178" data-original="#000000" class=""></circle>
	</g>
</g>
<g xmlns="http://www.w3.org/2000/svg">
	<g>
		<circle cx="377.658" cy="214.92" r="7.515" fill="#65C178" data-original="#000000" class=""></circle>
	</g>
</g>
<g xmlns="http://www.w3.org/2000/svg">
	<g>
		<circle cx="410.222" cy="214.92" r="7.515" fill="#65C178" data-original="#000000" class=""></circle>
	</g>
</g>
<g xmlns="http://www.w3.org/2000/svg">
	<g>
		<circle cx="433.267" cy="118.732" r="7.515" fill="#65C178" data-original="#000000" class=""></circle>
	</g>
</g>
<g xmlns="http://www.w3.org/2000/svg">
	<g>
		<circle cx="393.188" cy="118.732" r="7.515" fill="#65C178" data-original="#000000" class=""></circle>
	</g>
</g>
<g xmlns="http://www.w3.org/2000/svg">
	<g>
		<circle cx="353.11" cy="118.732" r="7.515" fill="#65C178" data-original="#000000" class=""></circle>
	</g>
</g>
<g xmlns="http://www.w3.org/2000/svg">
	<g>
		<circle cx="433.267" cy="151.796" r="7.515" fill="#65C178" data-original="#000000" class=""></circle>
	</g>
</g>
<g xmlns="http://www.w3.org/2000/svg">
	<g>
		<circle cx="393.188" cy="151.796" r="7.515" fill="#65C178" data-original="#000000" class=""></circle>
	</g>
</g>
<g xmlns="http://www.w3.org/2000/svg">
	<g>
		<circle cx="353.11" cy="151.796" r="7.515" fill="#65C178" data-original="#000000" class=""></circle>
	</g>
</g>
<g xmlns="http://www.w3.org/2000/svg">
	<g>
		<circle cx="433.267" cy="182.857" r="7.515" fill="#65C178" data-original="#000000" class=""></circle>
	</g>
</g>
<g xmlns="http://www.w3.org/2000/svg">
	<g>
		<circle cx="393.188" cy="182.857" r="7.515" fill="#65C178" data-original="#000000" class=""></circle>
	</g>
</g>
<g xmlns="http://www.w3.org/2000/svg">
	<g>
		<circle cx="353.11" cy="182.857" r="7.515" fill="#65C178" data-original="#000000" class=""></circle>
	</g>
</g>
<g xmlns="http://www.w3.org/2000/svg">
</g>
<g xmlns="http://www.w3.org/2000/svg">
</g>
<g xmlns="http://www.w3.org/2000/svg">
</g>
<g xmlns="http://www.w3.org/2000/svg">
</g>
<g xmlns="http://www.w3.org/2000/svg">
</g>
<g xmlns="http://www.w3.org/2000/svg">
</g>
<g xmlns="http://www.w3.org/2000/svg">
</g>
<g xmlns="http://www.w3.org/2000/svg">
</g>
<g xmlns="http://www.w3.org/2000/svg">
</g>
<g xmlns="http://www.w3.org/2000/svg">
</g>
<g xmlns="http://www.w3.org/2000/svg">
</g>
<g xmlns="http://www.w3.org/2000/svg">
</g>
<g xmlns="http://www.w3.org/2000/svg">
</g>
<g xmlns="http://www.w3.org/2000/svg">
</g>
<g xmlns="http://www.w3.org/2000/svg">
</g>
</g></svg>