<svg xmlns="http://www.w3.org/2000/svg" version="1.1" xmlns:xlink="http://www.w3.org/1999/xlink" xmlns:svgjs="http://svgjs.com/svgjs" width="512" height="512" x="0" y="0" viewBox="0 0 512.002 512.002" style="enable-background:new 0 0 512 512" xml:space="preserve"><g>
<g xmlns="http://www.w3.org/2000/svg">
	<g>
		<path d="M509.307,210.173l-61.436-51.506V39.591c0-4.15-3.363-7.515-7.514-7.515h-80.154c-4.151,0-7.514,3.365-7.514,7.515v39.277    L262.541,3.292c-2.997-4.389-10.083-4.389-13.08,0L2.695,210.173c-3.059,2.565-3.579,7.074-1.184,10.268l24.046,32.062    c2.529,3.371,7.517,3.977,10.779,1.3l27.796-22.81v273.495c0,4.15,3.365,7.514,7.514,7.514h368.71    c4.151,0,7.514-3.364,7.514-7.514V325.142c0-4.15-3.363-7.514-7.514-7.514s-7.514,3.365-7.514,7.514v171.831h-81.156v-80.655    c0-52.761-42.924-95.684-95.684-95.684c-52.761,0-95.684,42.924-95.684,95.684v80.655H79.16V218.659L256,73.537l176.841,145.121    v70.414c0,4.15,3.363,7.514,7.514,7.514s7.514-3.365,7.514-7.514v-58.08l27.796,22.81c3.262,2.676,8.249,2.073,10.779-1.301    l24.046-32.062C512.886,217.246,512.366,212.737,509.307,210.173z M256,335.661c44.474,0,80.655,36.182,80.655,80.655v80.655    H175.345v-80.655h0C175.345,371.843,211.527,335.661,256,335.661z M367.716,91.358V47.105h65.125v98.961l-65.13-54.603    C367.711,91.428,367.716,91.394,367.716,91.358z M479.131,237.204L260.768,58.007c-2.738-2.247-6.796-2.247-9.534,0L32.87,237.204    l-15.065-20.087L256.001,17.422l238.196,199.695L479.131,237.204z" fill="#65C178" data-original="#000000"></path>
	</g>
</g>
<g xmlns="http://www.w3.org/2000/svg">
	<g>
		<path d="M256,196.393c-33.976,0-61.619,27.642-61.619,61.619c0,31.056,23.035,49.596,61.619,49.596    c38.584,0,61.619-18.541,61.619-49.596C317.619,224.035,289.977,196.393,256,196.393z M256,292.578    c-17.399,0-46.59-4.491-46.59-34.567c0-25.689,20.9-46.59,46.59-46.59c25.69,0,46.59,20.9,46.59,46.59    C302.59,288.088,273.4,292.578,256,292.578z" fill="#65C178" data-original="#000000"></path>
	</g>
</g>
<g xmlns="http://www.w3.org/2000/svg">
	<g>
		<path d="M225.943,128.262c-15.36,0-25.549,18.996-25.549,31.561c0,14.088,11.462,25.549,25.549,25.549    c14.088,0,25.549-11.461,25.549-25.549C251.492,147.257,241.302,128.262,225.943,128.262z M225.943,170.343    c-5.801,0-10.52-4.719-10.52-10.52c0-7.107,5.998-16.532,10.52-16.532s10.52,9.425,10.52,16.532    C236.463,165.624,231.744,170.343,225.943,170.343z" fill="#65C178" data-original="#000000"></path>
	</g>
</g>
<g xmlns="http://www.w3.org/2000/svg">
	<g>
		<path d="M286.058,128.262c-15.359,0-25.549,18.996-25.549,31.561c0,14.088,11.461,25.549,25.549,25.549    s25.549-11.461,25.549-25.549C311.608,147.257,301.417,128.262,286.058,128.262z M286.058,170.343    c-5.801,0-10.52-4.719-10.52-10.52c0-7.107,5.998-16.532,10.52-16.532c4.523,0,10.52,9.425,10.52,16.532    C296.579,165.624,291.86,170.343,286.058,170.343z" fill="#65C178" data-original="#000000"></path>
	</g>
</g>
<g xmlns="http://www.w3.org/2000/svg">
	<g>
		<path d="M334.151,164.331c-15.359,0-25.549,18.996-25.549,31.561c0,14.088,11.461,25.549,25.549,25.549    S359.7,209.98,359.7,195.892C359.7,183.327,349.51,164.331,334.151,164.331z M334.151,206.412c-5.801,0-10.52-4.719-10.52-10.52    c0-7.107,5.998-16.532,10.52-16.532s10.52,9.425,10.52,16.532C344.671,201.693,339.952,206.412,334.151,206.412z" fill="#65C178" data-original="#000000"></path>
	</g>
</g>
<g xmlns="http://www.w3.org/2000/svg">
	<g>
		<path d="M177.85,164.331c-15.36,0-25.549,18.996-25.549,31.561c0,14.088,11.461,25.549,25.549,25.549s25.549-11.461,25.549-25.549    C203.399,183.328,193.21,164.331,177.85,164.331z M177.85,206.412c-5.801,0-10.52-4.719-10.52-10.52    c0-7.107,5.998-16.532,10.52-16.532s10.52,9.425,10.52,16.532C188.37,201.693,183.651,206.412,177.85,206.412z" fill="#65C178" data-original="#000000"></path>
	</g>
</g>
<g xmlns="http://www.w3.org/2000/svg">
</g>
<g xmlns="http://www.w3.org/2000/svg">
</g>
<g xmlns="http://www.w3.org/2000/svg">
</g>
<g xmlns="http://www.w3.org/2000/svg">
</g>
<g xmlns="http://www.w3.org/2000/svg">
</g>
<g xmlns="http://www.w3.org/2000/svg">
</g>
<g xmlns="http://www.w3.org/2000/svg">
</g>
<g xmlns="http://www.w3.org/2000/svg">
</g>
<g xmlns="http://www.w3.org/2000/svg">
</g>
<g xmlns="http://www.w3.org/2000/svg">
</g>
<g xmlns="http://www.w3.org/2000/svg">
</g>
<g xmlns="http://www.w3.org/2000/svg">
</g>
<g xmlns="http://www.w3.org/2000/svg">
</g>
<g xmlns="http://www.w3.org/2000/svg">
</g>
<g xmlns="http://www.w3.org/2000/svg">
</g>
</g></svg>