<svg xmlns="http://www.w3.org/2000/svg" version="1.1" xmlns:xlink="http://www.w3.org/1999/xlink" xmlns:svgjs="http://svgjs.com/svgjs" width="512" height="512" x="0" y="0" viewBox="0 0 512 512" style="enable-background:new 0 0 512 512" xml:space="preserve" class=""><g><circle xmlns="http://www.w3.org/2000/svg" cx="106" cy="256" r="10" fill="#65C178" data-original="#000000"></circle><circle xmlns="http://www.w3.org/2000/svg" cx="156.001" cy="345.999" r="10" fill="#65C178" data-original="#000000"></circle><path xmlns="http://www.w3.org/2000/svg" d="m40 356h71c5.523 0 10-4.477 10-10s-4.477-10-10-10h-71c-11.045 0-20-8.966-20-20 0-49.111 48.029-84.387 91.399-106.226 5.42 6.752 12.071 12.492 19.588 16.848 4.778 2.768 10.896 1.141 13.666-3.639 2.769-4.778 1.14-10.897-3.639-13.666-15.001-8.691-25.014-24.905-25.014-43.317 0-27.57 22.43-50 50-50s50 22.43 50 50c0 17.796-9.582 34.393-25.006 43.314-4.781 2.765-6.415 8.882-3.65 13.663 2.77 4.79 8.892 6.411 13.663 3.65 19.948-11.537 32.903-32.254 34.755-54.993 39.284-24.043 84.389-24.976 86.325-25.604 74.123-5.589 169.894 24.305 169.894 97.471 0 51.005-40.473 92.568-90.22 92.568 0 0-81.302-.022-82.271-.068-25.144-1.229-46.087-18.733-49.798-41.524-5.208-32.031 19.528-58.477 49.308-58.477 5.523 0 10-4.477 10-10s-4.477-10-10-10c-42.832 0-76.108 38.262-69.05 81.687 2.43 14.926 9.986 28.207 20.85 38.313h-69.8c-5.523 0-10 4.477-10 10s4.477 10 10 10c10.555-.001 190.207-.002 200.759 0 31.706 0 61.136-13.355 82.153-37.27 5.258 8.035 8.088 17.419 8.088 27.27 0 27.57-22.43 50-50 50h-30c-22.056 0-40 17.944-40 40s17.944 40 40 40h30c5.523 0 10-4.477 10-10s-4.477-10-10-10h-30c-11.028 0-20-8.972-20-20s8.972-20 20-20h30c38.598 0 70-31.402 70-70 0-16.357-5.56-31.801-15.774-44.255 10.265-17.368 15.754-37.364 15.754-58.245 0-83.719-98.129-121.741-182.98-117.927v-39.573h50c5.523 0 10-4.477 10-10s-4.477-10-10-10h-50v-20c0-5.523-4.477-10-10-10s-10 4.477-10 10v20h-50c-5.523 0-10 4.477-10 10s4.477 10 10 10h50v41.217c-28 3.342-53.5 10.972-74.957 22.39-7.401-30.713-35.09-53.607-68.043-53.607-38.598 0-70 31.402-70 70 0 9.155 1.794 18.16 5.222 26.523-66.261 33.647-101.222 76.198-101.222 123.477 0 21.921 17.739 40 40 40z" fill="#65C178" data-original="#000000"></path></g></svg>