<svg xmlns="http://www.w3.org/2000/svg" version="1.1" xmlns:xlink="http://www.w3.org/1999/xlink" xmlns:svgjs="http://svgjs.com/svgjs" width="512" height="512" x="0" y="0" viewBox="0 0 512 512" style="enable-background:new 0 0 512 512" xml:space="preserve"><g>
<g xmlns="http://www.w3.org/2000/svg">
	<g>
		<path d="M464.428,135.727c4.152,0,7.515-3.365,7.515-7.515V7.463c0-6.42-7.913-9.884-12.63-5.507L349.247,104.162H162.753    L52.686,1.956c-4.715-4.378-12.63-0.913-12.63,5.507v200.412c0,57.681,22.462,111.909,63.248,152.696    c35.367,35.366,80.841,56.942,129.907,62.056c-14.77,8.09-24.81,23.781-24.81,41.776c0,26.245,21.353,47.598,47.598,47.598    c26.245,0,47.598-21.353,47.598-47.598c0-17.995-10.04-33.686-24.81-41.776c49.067-5.114,94.541-26.69,129.907-62.056    c40.786-40.787,63.248-95.015,63.248-152.696v-43.59c0-4.151-3.364-7.515-7.515-7.515s-7.515,3.365-7.515,7.515v43.59    c0,110.784-90.129,200.913-200.913,200.913S55.085,318.659,55.085,207.875V24.698l97.2,90.257v76.887    c0,3.135,2.024,6.015,4.976,7.074c3.336,1.196,7.161-0.168,8.984-3.207l40.536-67.561l42.309,98.72    c2.549,5.947,11.266,5.948,13.815,0l42.309-98.72l40.536,67.561c1.824,3.038,5.648,4.403,8.984,3.207    c2.952-1.058,4.976-3.938,4.976-7.074v-76.887l97.2-90.257v103.514C456.913,132.362,460.277,135.727,464.428,135.727z     M248.485,432.72v23.666c0,0.169,0.014,0.335,0.025,0.501h-0.526c-4.152,0-7.515,3.365-7.515,7.515    c0,4.151,3.364,7.515,7.515,7.515h16.033c4.152,0,7.515-3.365,7.515-7.515c0-4.151-3.364-7.515-7.515-7.515h-0.526    c0.011-0.166,0.025-0.332,0.025-0.501V432.72c14.344,3.403,25.051,16.312,25.051,31.682c0,17.957-14.609,32.567-32.567,32.567    s-32.567-14.61-32.567-32.567C223.433,449.032,234.14,436.123,248.485,432.72z M167.318,164.709v-45.516h27.31L167.318,164.709z     M256,204.829l-36.701-85.636h73.403L256,204.829z M344.682,164.709l-27.31-45.516h27.31V164.709z" fill="#65C178" data-original="#000000"></path>
	</g>
</g>
<g xmlns="http://www.w3.org/2000/svg">
	<g>
		<path d="M288.066,360.689c-12.545,0-22.915-9.459-24.369-21.618l29.684-29.684c4.637-4.638,1.237-12.829-5.315-12.829h-64.132    c-6.55,0-9.951,8.192-5.315,12.829l29.684,29.684c-1.454,12.159-11.824,21.618-24.369,21.618c-4.152,0-7.515,3.365-7.515,7.515    s3.364,7.515,7.515,7.515c13.18,0,24.868-6.481,32.066-16.418c7.198,9.936,18.886,16.418,32.066,16.418    c4.152,0,7.515-3.365,7.515-7.515S292.217,360.689,288.066,360.689z M256,325.511l-13.923-13.923h27.845L256,325.511z" fill="#65C178" data-original="#000000"></path>
	</g>
</g>
<g xmlns="http://www.w3.org/2000/svg">
	<g>
		<path d="M352.198,248.458c-17.405,0-31.565,14.16-31.565,31.565c0,4.151,3.364,7.515,7.515,7.515c4.151,0,7.515-3.365,7.515-7.515    c0-9.117,7.417-16.534,16.534-16.534c9.117,0,16.534,7.417,16.534,16.534c0,4.151,3.364,7.515,7.515,7.515    s7.515-3.365,7.515-7.515C383.763,262.619,369.602,248.458,352.198,248.458z" fill="#65C178" data-original="#000000"></path>
	</g>
</g>
<g xmlns="http://www.w3.org/2000/svg">
	<g>
		<path d="M159.802,248.458c-17.405,0-31.565,14.16-31.565,31.565c0,4.151,3.364,7.515,7.515,7.515s7.515-3.365,7.515-7.515    c0-9.117,7.417-16.534,16.534-16.534c9.117,0,16.534,7.417,16.534,16.534c0,4.151,3.364,7.515,7.515,7.515    c4.152,0,7.515-3.365,7.515-7.515C191.367,262.619,177.207,248.458,159.802,248.458z" fill="#65C178" data-original="#000000"></path>
	</g>
</g>
<g xmlns="http://www.w3.org/2000/svg">
	<g>
		<path d="M427.047,74.298l-32.066,32.066c-2.895,2.895-2.895,7.733,0,10.628c2.896,2.895,7.733,2.895,10.629,0l19.236-19.237    v13.923c0.001,4.151,3.365,7.515,7.516,7.515s7.515-3.365,7.515-7.515V79.612C439.878,73.06,431.686,69.66,427.047,74.298z" fill="#65C178" data-original="#000000"></path>
	</g>
</g>
<g xmlns="http://www.w3.org/2000/svg">
	<g>
		<path d="M117.017,106.364L84.952,74.298c-2.15-2.149-5.382-2.794-8.19-1.629c-2.809,1.163-4.64,3.904-4.64,6.943v32.066    c0,4.151,3.364,7.515,7.515,7.515s7.515-3.365,7.515-7.515V97.755l19.236,19.237c2.896,2.895,7.734,2.895,10.629,0    S119.912,109.258,117.017,106.364z" fill="#65C178" data-original="#000000"></path>
	</g>
</g>
<g xmlns="http://www.w3.org/2000/svg">
</g>
<g xmlns="http://www.w3.org/2000/svg">
</g>
<g xmlns="http://www.w3.org/2000/svg">
</g>
<g xmlns="http://www.w3.org/2000/svg">
</g>
<g xmlns="http://www.w3.org/2000/svg">
</g>
<g xmlns="http://www.w3.org/2000/svg">
</g>
<g xmlns="http://www.w3.org/2000/svg">
</g>
<g xmlns="http://www.w3.org/2000/svg">
</g>
<g xmlns="http://www.w3.org/2000/svg">
</g>
<g xmlns="http://www.w3.org/2000/svg">
</g>
<g xmlns="http://www.w3.org/2000/svg">
</g>
<g xmlns="http://www.w3.org/2000/svg">
</g>
<g xmlns="http://www.w3.org/2000/svg">
</g>
<g xmlns="http://www.w3.org/2000/svg">
</g>
<g xmlns="http://www.w3.org/2000/svg">
</g>
</g></svg>